<?xml version="1.0" standalone="no"?>
<!DOCTYPE svg PUBLIC "-//W3C//DTD SVG 20010904//EN"
 "http://www.w3.org/TR/2001/REC-SVG-20010904/DTD/svg10.dtd">
<svg version="1.0" xmlns="http://www.w3.org/2000/svg"
 width="784.000000pt" height="784.000000pt" viewBox="0 0 784.000000 784.000000"
 preserveAspectRatio="xMidYMid meet">
<metadata>
Created by potrace 1.14, written by Peter Selinger 2001-2017
</metadata>
<g transform="translate(0.000000,784.000000) scale(0.100000,-0.100000)"
fill="#000000" stroke="none">
<path d="M6099 6716 c-2 -2 -29 -6 -59 -10 -30 -3 -62 -8 -70 -9 -30 -7 -115
-20 -118 -18 -1 1 -16 -6 -32 -14 -17 -9 -30 -13 -30 -11 0 10 -168 -56 -265
-103 -85 -42 -168 -91 -210 -123 -5 -5 -35 -27 -65 -50 -65 -49 -223 -206
-265 -263 -17 -22 -32 -42 -35 -45 -14 -13 -111 -172 -132 -216 -13 -27 -25
-51 -28 -54 -11 -11 -95 -247 -105 -294 -28 -135 -35 -192 -40 -311 -4 -66 -8
-126 -10 -132 -2 -7 0 -13 4 -13 5 0 5 -16 1 -35 -5 -23 -4 -35 3 -35 8 0 8
-3 0 -11 -7 -7 -8 -21 -3 -39 4 -15 4 -33 0 -41 -5 -7 -6 -17 -3 -22 7 -12 7
-116 0 -123 -3 -4 -2 -16 3 -28 4 -13 5 -28 0 -35 -4 -7 -4 -28 0 -47 4 -19 4
-36 0 -39 -5 -3 -5 -18 0 -34 4 -16 6 -32 2 -35 -7 -7 -6 -102 1 -114 3 -4 2
-14 -3 -22 -4 -7 -4 -24 0 -36 6 -14 5 -26 0 -29 -5 -3 -5 -18 0 -34 4 -15 4
-34 0 -42 -5 -7 -6 -17 -3 -22 3 -5 5 -35 4 -66 -1 -31 -1 -65 -1 -76 1 -11 1
-27 0 -35 0 -8 0 -28 1 -45 1 -16 1 -37 0 -45 -1 -8 -1 -24 -1 -35 1 -11 1
-27 1 -35 -3 -61 -2 -111 3 -119 4 -5 2 -12 -3 -15 -6 -4 -6 -18 -1 -36 5 -16
5 -32 0 -35 -5 -3 -5 -18 0 -34 4 -15 4 -34 0 -42 -5 -7 -6 -17 -3 -22 7 -12
7 -116 0 -123 -3 -4 -2 -16 3 -28 4 -13 5 -28 0 -35 -4 -7 -4 -28 0 -47 4 -19
4 -36 0 -39 -5 -3 -5 -18 0 -34 4 -16 6 -32 2 -35 -7 -7 -6 -102 1 -114 3 -4
2 -14 -3 -22 -4 -7 -4 -24 0 -36 6 -14 5 -26 0 -29 -5 -3 -5 -18 0 -34 4 -15
4 -34 0 -42 -5 -7 -6 -17 -3 -22 3 -5 5 -35 4 -66 -1 -31 -1 -65 -1 -76 1 -11
1 -27 1 -35 -6 -126 12 -300 45 -429 9 -36 17 -72 19 -80 9 -37 59 -162 99
-247 46 -95 120 -212 189 -299 97 -120 293 -293 397 -351 19 -10 37 -22 40
-25 9 -11 147 -78 223 -108 77 -31 234 -75 302 -86 22 -4 51 -9 65 -11 68 -13
351 -12 440 2 90 13 128 20 140 24 3 1 8 2 12 1 18 -2 226 73 309 111 80 38
252 138 269 158 3 3 34 29 70 57 36 29 95 83 131 120 72 75 189 225 189 242 0
6 3 11 8 11 9 0 12 6 78 141 48 96 76 157 79 169 0 3 9 32 20 65 10 33 19 62
20 65 0 3 7 28 13 55 41 162 41 177 38 1590 -1 748 -5 1375 -9 1393 -3 18 -11
59 -17 90 -6 31 -13 67 -16 79 -27 135 -168 447 -231 511 -7 7 -13 17 -13 22
0 5 -6 15 -13 22 -7 7 -36 42 -64 78 -233 292 -598 499 -998 565 -43 7 -370
17 -376 11z"/>
<path d="M1445 4313 c-24 -3 -170 -26 -226 -37 -110 -21 -350 -123 -468 -200
-40 -25 -76 -46 -81 -46 -6 0 -10 -4 -10 -9 0 -4 -18 -20 -41 -35 -46 -31
-218 -199 -269 -264 -32 -42 -62 -85 -123 -177 -61 -93 -143 -294 -180 -440
-15 -58 -19 -76 -34 -180 -9 -58 -9 -363 0 -415 3 -19 8 -53 12 -75 9 -58 33
-149 62 -235 27 -84 122 -287 144 -310 8 -8 21 -28 29 -45 8 -16 17 -32 20
-35 3 -3 27 -34 54 -70 97 -127 302 -313 416 -376 19 -10 37 -22 40 -25 16
-20 289 -139 350 -154 8 -2 53 -12 100 -23 47 -11 92 -20 100 -20 8 0 26 -3
40 -7 14 -4 97 -8 185 -10 143 -3 276 7 365 29 14 3 36 8 50 10 56 10 221 70
308 111 77 37 244 136 262 155 3 3 28 23 55 44 68 53 213 200 254 258 19 27
38 48 43 48 4 0 8 4 8 10 0 5 20 40 45 78 41 65 142 268 150 302 0 3 8 30 17
60 62 202 72 272 72 485 1 159 -7 248 -30 345 -3 14 -8 34 -10 46 -18 94 -147
404 -185 444 -8 8 -21 28 -29 45 -8 16 -20 37 -27 45 -141 179 -225 265 -354
362 -194 145 -453 257 -674 293 -22 4 -51 9 -65 11 -31 6 -333 11 -375 7z"/>
</g>
</svg>
